# xmcd
#
# Track frame offsets: 
#        150
#        24786
#        45385
#        69850
#        90143
#        109987
#        131132
#        149402
#        176299
#        202816
#
# Disc length: 2961 seconds
#
# Revision: 0
# Processed by: cddbd v1.5.2PL0 Copyright (c) Steve Scherf et al.
# Submitted via: ExactAudioCopy v1.0b3
#
DISCID=750b8f0a
DTITLE=Cam Ly - Em Se Quen, Dem Co Mua Roi
DYEAR=2007
DGENRE=
TTITLE0=Em van lam tin anh
TTITLE1=Dem co mua roi
TTITLE2=Tinh yeu ngay ay
TTITLE3=Pho vang em roi
TTITLE4=Em se quen nguoi oi
TTITLE5=Mua hoa anh dao
TTITLE6=Co biet khong anh
TTITLE7=Tieng chim quyen
TTITLE8=Sau tim thiep hong
TTITLE9=Nga ba tinh
EXTD=
EXTT0=
EXTT1=
EXTT2=
EXTT3=
EXTT4=
EXTT5=
EXTT6=
EXTT7=
EXTT8=
EXTT9=
PLAYORDER=
